Exact Audio Copy V0.99 prebeta 4 from 23. January 2008

EAC extraction logfile from 3. October 2009, 10:39

Various Artists / Ten Years Cocoon Ibiza CD1 Mixed By Dubfire

Used drive  : Optiarc DVD RW AD-7201A   Adapter: 0  ID: 0

Read mode               : Secure
Utilize accurate stream : Yes
Defeat audio cache      : Yes
Make use of C2 pointers : No

Read offset correction                      : 48
Overread into Lead-In and Lead-Out          : No
Fill up missing offset samples with silence : Yes
Delete leading and trailing silent blocks   : No
Null samples used in CRC calculations       : Yes
Used interface                              : Native Win32 interface for Win NT & 2000
Gap handling                                : Appended to previous track

Used output format              : User Defined Encoder
Selected bitrate                : 128 kBit/s
Quality                         : High
Add ID3 tag                     : No
Command line compressor         : C:Program FilesExact Audio CopyFlacflac.exe
Additional command line options : -8 -V -T "ARTIST=%a" -T "TITLE=%t" -T "ALBUM=%g" -T "DATE=%y" -T "TRACKNUMBER=%n" -T "GENRE=%m" -T "COMMENT=EAC FLAC -8" %s


TOC of the extracted CD

     Track |   Start  |  Length  | Start sector | End sector 
    ---------------------------------------------------------
        1  |  0:00.00 |  1:32.08 |         0    |     6907   
        2  |  1:32.08 |  4:24.26 |      6908    |    26733   
        3  |  5:56.34 |  3:01.42 |     26734    |    40350   
        4  |  8:58.01 |  5:03.32 |     40351    |    63107   
        5  | 14:01.33 |  5:27.64 |     63108    |    87696   
        6  | 19:29.22 |  4:57.14 |     87697    |   109985   
        7  | 24:26.36 |  8:22.51 |    109986    |   147686   
        8  | 32:49.12 |  5:04.32 |    147687    |   170518   
        9  | 37:53.44 |  6:04.70 |    170519    |   197888   
       10  | 43:58.39 |  2:31.71 |    197889    |   209284   
       11  | 46:30.35 |  5:11.19 |    209285    |   232628   
       12  | 51:41.54 |  3:32.21 |    232629    |   248549   
       13  | 55:14.00 |  6:18.34 |    248550    |   276933   
       14  | 61:32.34 |  5:54.67 |    276934    |   303550   
       15  | 67:27.26 |  3:19.02 |    303551    |   318477   
       16  | 70:46.28 |  7:08.28 |    318478    |   350605   


Track  1

     Filename J:TorrentsVA - Ten Years Cocoon IbizaVarious Artists - Ten Years Cocoon Ibiza CD1 Mixed By Dubfire 1. Basic Channel + Mr. Bizz - Mutism + Eternity.wav

     Pre-gap length  0:00:02.00

     Peak level 85.1 %
     Track quality 100.0 %
     Test CRC 016569BB
     Copy CRC 016569BB
     Track not present in AccurateRip database
     Copy OK

Track  2

     Filename J:TorrentsVA - Ten Years Cocoon IbizaVarious Artists - Ten Years Cocoon Ibiza CD1 Mixed By Dubfire 2. Djorvin Clain - Unwritten Secret (Tadeo Remix).wav

     Peak level 98.8 %
     Track quality 99.9 %
     Test CRC 5023E71B
     Copy CRC 5023E71B
     Track not present in AccurateRip database
     Copy OK

Track  3

     Filename J:TorrentsVA - Ten Years Cocoon IbizaVarious Artists - Ten Years Cocoon Ibiza CD1 Mixed By Dubfire 3. Lachriz - Papageno.wav

     Peak level 98.8 %
     Track quality 100.0 %
     Test CRC 47BD52EF
     Copy CRC 47BD52EF
     Track not present in AccurateRip database
     Copy OK

Track  4

     Filename J:TorrentsVA - Ten Years Cocoon IbizaVarious Artists - Ten Years Cocoon Ibiza CD1 Mixed By Dubfire 4. Fritz Zander - Keep Focused.wav

     Peak level 98.8 %
     Track quality 100.0 %
     Test CRC 8B07A0FF
     Copy CRC 8B07A0FF
     Track not present in AccurateRip database
     Copy OK

Track  5

     Filename J:TorrentsVA - Ten Years Cocoon IbizaVarious Artists - Ten Years Cocoon Ibiza CD1 Mixed By Dubfire 5. Sebrok - Vision.wav

     Peak level 98.8 %
     Track quality 100.0 %
     Test CRC FD865C36
     Copy CRC FD865C36
     Track not present in AccurateRip database
     Copy OK

Track  6

     Filename J:TorrentsVA - Ten Years Cocoon IbizaVarious Artists - Ten Years Cocoon Ibiza CD1 Mixed By Dubfire 6. Alessio mereu - Attimo Vincente.wav

     Peak level 98.8 %
     Track quality 99.9 %
     Test CRC AF3C2E7F
     Copy CRC AF3C2E7F
     Track not present in AccurateRip database
     Copy OK

Track  7

     Filename J:TorrentsVA - Ten Years Cocoon IbizaVarious Artists - Ten Years Cocoon Ibiza CD1 Mixed By Dubfire 7. Paul Ritch - Split The Line (Dubfire Mega Remix).wav

     Peak level 98.8 %
     Track quality 100.0 %
     Test CRC 84ACA3BA
     Copy CRC 84ACA3BA
     Track not present in AccurateRip database
     Copy OK

Track  8

     Filename J:TorrentsVA - Ten Years Cocoon IbizaVarious Artists - Ten Years Cocoon Ibiza CD1 Mixed By Dubfire 8. Anton Pieete & Delete - Minutos.wav

     Peak level 98.8 %
     Track quality 100.0 %
     Test CRC 9C631227
     Copy CRC 9C631227
     Track not present in AccurateRip database
     Copy OK

Track  9

     Filename J:TorrentsVA - Ten Years Cocoon IbizaVarious Artists - Ten Years Cocoon Ibiza CD1 Mixed By Dubfire 9. Tiga - Beep Beep (Loco Dice Remix).wav

     Peak level 98.8 %
     Track quality 99.9 %
     Test CRC 01F4C6B2
     Copy CRC 01F4C6B2
     Track not present in AccurateRip database
     Copy OK

Track 10

     Filename J:TorrentsVA - Ten Years Cocoon IbizaVarious Artists - Ten Years Cocoon Ibiza CD1 Mixed By Dubfire10. Andrea Oliva - Rainers.wav

     Peak level 98.8 %
     Track quality 100.0 %
     Test CRC 6E993068
     Copy CRC 6E993068
     Track not present in AccurateRip database
     Copy OK

Track 11

     Filename J:TorrentsVA - Ten Years Cocoon IbizaVarious Artists - Ten Years Cocoon Ibiza CD1 Mixed By Dubfire11. Martin woerner - Tilt Tuck & Tighten.wav

     Peak level 98.8 %
     Track quality 100.0 %
     Test CRC 619FE850
     Copy CRC 619FE850
     Track not present in AccurateRip database
     Copy OK

Track 12

     Filename J:TorrentsVA - Ten Years Cocoon IbizaVarious Artists - Ten Years Cocoon Ibiza CD1 Mixed By Dubfire12. Rino Cerrone & Flavio Diaz - Miseno.wav

     Peak level 98.8 %
     Track quality 100.0 %
     Test CRC 2EA31799
     Copy CRC 2EA31799
     Track not present in AccurateRip database
     Copy OK

Track 13

     Filename J:TorrentsVA - Ten Years Cocoon IbizaVarious Artists - Ten Years Cocoon Ibiza CD1 Mixed By Dubfire13. Reset Robot - Do The Slot.wav

     Peak level 98.8 %
     Track quality 100.0 %
     Test CRC FB6E2EB5
     Copy CRC FB6E2EB5
     Track not present in AccurateRip database
     Copy OK

Track 14

     Filename J:TorrentsVA - Ten Years Cocoon IbizaVarious Artists - Ten Years Cocoon Ibiza CD1 Mixed By Dubfire14. Yapacc - Conga De Terre.wav

     Peak level 98.8 %
     Track quality 100.0 %
     Test CRC 80816370
     Copy CRC 80816370
     Track not present in AccurateRip database
     Copy OK

Track 15

     Filename J:TorrentsVA - Ten Years Cocoon IbizaVarious Artists - Ten Years Cocoon Ibiza CD1 Mixed By Dubfire15. Max Cavalerra - Function.wav

     Peak level 98.8 %
     Track quality 100.0 %
     Test CRC 2495E599
     Copy CRC 2495E599
     Track not present in AccurateRip database
     Copy OK

Track 16

     Filename J:TorrentsVA - Ten Years Cocoon IbizaVarious Artists - Ten Years Cocoon Ibiza CD1 Mixed By Dubfire16. Minilogue + Basic Channel - Jamaica (Dubfire Dreadmill Remix) + Mutism).wav

     Peak level 98.8 %
     Track quality 99.9 %
     Test CRC BFC28C66
     Copy CRC BFC28C66
     Track not present in AccurateRip database
     Copy OK


None of the tracks are present in the AccurateRip database

No errors occurred

End of status report
